<?xml version="1.0" encoding="UTF-8" standalone="no"?>
<svg
   height="64"
   width="64"
   version="1.1"
   id="svg1"
   xmlns="http://www.w3.org/2000/svg"
   xmlns:svg="http://www.w3.org/2000/svg">
  <defs
     id="defs1" />
  <circle
     id="outline"
     fill="#f6f6f6"
     stroke-width="2"
     stroke="black"
     r="31"
     cy="32"
     cx="32" />
  <path
     id="color"
     style="fill:none;stroke:#000000;stroke-width:2"
     d="M 59,32 A 27,27 0 0 1 32,59 27,27 0 0 1 5,32 27,27 0 0 1 32,5 27,27 0 0 1 59,32 Z" />
  <path
     d="m 27.965515,26.966568 v 18.28125 h -2.65625 v -2.1875 h -3.90625 v 4.21875 h -2.65625 v -14.375 q -0.9375,2.03125 -2.96875,4.0625 l -2.03125,-2.8125 q 5.3125,-5.3125 6.71875,-16.09375 h -4.84375 v -2.96875 h 13.75 v 2.96875 h -5.9375 q -0.46875,4.53125 -1.875,8.90625 z m 22.96875,14.53125 -0.625,3.75 q -0.46875,2.5 -2.96875,2.5 h -13.28125 q -2.8125,0 -2.8125,-2.65625 v -12.34375 h 7.1875 v -5 h -6.5625 v -2.96875 h 9.6875 v 10.9375 h -7.1875 v 7.8125 q 0,1.25 1.09375,1.25 h 10.3125 q 1.25,0 1.40625,-0.78125 l 0.46875,-3.125 z m -15.46875,-23.59375 h 13.28125 l -0.46875,18.59375 q 0,2.8125 -2.65625,2.8125 h -3.59375 l -0.78125,-2.96875 h 3.4375 q 0.625,0 0.625,-0.625 l 0.46875,-14.84375 h -11.71875 q -2.03125,3.59375 -5,6.09375 l -2.03125,-2.5 q 5,-4.21875 7.1875,-12.03125 l 3.28125,0.9375 q 0.625,0.625 -0.46875,0.78125 z m -14.0625,22.65625 h 3.90625 v -11.09375 h -3.90625 z"
     id="piece_name"
     style="font-weight:bold;font-size:40px;text-anchor:middle"
     aria-label="砲" />
</svg>
