<?xml version="1.0" encoding="UTF-8" standalone="no"?>
<svg
   height="64"
   width="64"
   version="1.1"
   id="svg1"
   sodipodi:docname="bE.svg"
   inkscape:version="1.4 (86a8ad7, 2024-10-11)"
   xmlns:inkscape="http://www.inkscape.org/namespaces/inkscape"
   xmlns:sodipodi="http://sodipodi.sourceforge.net/DTD/sodipodi-0.dtd"
   xmlns="http://www.w3.org/2000/svg"
   xmlns:svg="http://www.w3.org/2000/svg">
  <sodipodi:namedview
     id="namedview1"
     pagecolor="#505050"
     bordercolor="#eeeeee"
     borderopacity="1"
     inkscape:showpageshadow="0"
     inkscape:pageopacity="0"
     inkscape:pagecheckerboard="0"
     inkscape:deskcolor="#505050"
     inkscape:zoom="12.078125"
     inkscape:cx="31.958603"
     inkscape:cy="32"
     inkscape:window-width="1920"
     inkscape:window-height="991"
     inkscape:window-x="-9"
     inkscape:window-y="-9"
     inkscape:window-maximized="1"
     inkscape:current-layer="svg1" />
  <defs
     id="defs1" />
  <path
     id="outline"
     style="fill:#f6f6f6;stroke:#000000;stroke-width:2"
     d="M 63,32 A 31,31 0 0 1 32,63 31,31 0 0 1 1,32 31,31 0 0 1 32,1 31,31 0 0 1 63,32 Z" />
  <path
     id="color"
     style="fill:none;stroke:#000000;stroke-width:2"
     d="M 59,32 A 27,27 0 0 1 32,59 27,27 0 0 1 5,32 27,27 0 0 1 32,5 27,27 0 0 1 59,32 Z" />
  <path
     d="m 15.501617,43.813553 q 10.3125,-2.1875 17.03125,-8.59375 l -0.78125,-1.40625 q -6.5625,5.3125 -14.53125,6.71875 l -1.25,-2.96875 q 8.75,-1.71875 14.21875,-6.09375 l -1.09375,-1.09375 q -5.625,3.28125 -12.96875,4.84375 l -1.25,-2.8125 q 8.75,-1.71875 13.90625,-5 h -8.90625 v -5 q -1.5625,1.40625 -4.21875,2.8125 l -1.5625,-3.125 q 7.34375,-3.90625 11.09375,-10.3125 l 3.59375,0.625 q 0.625,0.625 -0.46875,0.78125 -0.46875,0.625 -0.9375,1.09375 h 8.75 l 0.625,-0.78125 2.8125,1.71875 q 0.625,0.625 -0.46875,0.78125 l -2.96875,3.4375 h 9.53125 v 7.96875 h -11.5625 l -2.65625,1.5625 q 1.875,1.25 3.125,3.125 4.0625,-1.71875 8.4375,-4.53125 l 2.5,2.65625 q 0,0.78125 -0.9375,0.46875 -3.4375,1.875 -7.03125,3.59375 5,4.21875 12.5,7.8125 l -1.71875,3.4375 q -7.34375,-3.59375 -11.875,-8.59375 0.625,2.1875 0.625,3.75 0,6.40625 -3.59375,7.1875 -1.5625,0.3125 -4.6875,-0.46875 v -3.28125 q 1.71875,0.625 3.125,0.625 1.875,0 1.875,-4.0625 0,-1.5625 -0.3125,-2.34375 -6.71875,6.09375 -16.5625,8.90625 z m 15.46875,-21.875 h -8.4375 v 2.96875 h 8.4375 z m 12.03125,0 h -9.375 v 2.96875 h 9.375 z m -8.28125,-5.15625 h -9.21875 q -1.25,1.40625 -2.5,2.65625 h 9.375 z"
     id="piece_name"
     style="font-weight:bold;font-size:40px;text-anchor:middle"
     aria-label="象" />
</svg>
