<?xml version="1.0" encoding="UTF-8" standalone="no"?>
<svg
   height="64"
   width="64"
   version="1.1"
   id="svg1"
   sodipodi:docname="bG.svg"
   inkscape:version="1.4 (86a8ad7, 2024-10-11)"
   xmlns:inkscape="http://www.inkscape.org/namespaces/inkscape"
   xmlns:sodipodi="http://sodipodi.sourceforge.net/DTD/sodipodi-0.dtd"
   xmlns="http://www.w3.org/2000/svg"
   xmlns:svg="http://www.w3.org/2000/svg">
  <sodipodi:namedview
     id="namedview1"
     pagecolor="#505050"
     bordercolor="#eeeeee"
     borderopacity="1"
     inkscape:showpageshadow="0"
     inkscape:pageopacity="0"
     inkscape:pagecheckerboard="0"
     inkscape:deskcolor="#505050"
     inkscape:zoom="12.078125"
     inkscape:cx="35.270375"
     inkscape:cy="32.413972"
     inkscape:window-width="1920"
     inkscape:window-height="991"
     inkscape:window-x="-9"
     inkscape:window-y="-9"
     inkscape:window-maximized="1"
     inkscape:current-layer="svg1" />
  <defs
     id="defs1" />
  <path
     id="outline"
     style="fill:#f6f6f6;stroke:#000000;stroke-width:2"
     d="M 63,32 A 31,31 0 0 1 32,63 31,31 0 0 1 1,32 31,31 0 0 1 32,1 31,31 0 0 1 63,32 Z" />
  <path
     id="color"
     style="fill:none;stroke:#000000;stroke-width:2"
     d="M 59,32 A 27,27 0 0 1 32,59 27,27 0 0 1 5,32 27,27 0 0 1 32,5 27,27 0 0 1 59,32 Z" />
  <path
     d="m 35.051544,44.035172 q -2.1875,-4.0625 -4.21875,-6.09375 l 2.65625,-1.71875 q 2.5,2.34375 4.375,5.9375 z m 6.25,-11.875 v -5.9375 h 2.96875 q 1.25,0.15625 0.15625,0.9375 v 5 h 6.09375 v 2.96875 h -6.09375 v 11.25 q 0,2.65625 -2.5,2.65625 h -3.4375 l -0.46875,-2.96875 h 2.65625 q 0.625,0 0.625,-0.625 v -10.3125 h -13.75 v -2.96875 z m -15.15625,17.1875 h -3.125 v -14.21875 h -2.65625 v 3.75 q 0,7.03125 -4.375,10.625 l -1.71875,-3.125 q 2.96875,-2.34375 2.96875,-7.03125 v -4.21875 h -2.8125 v -2.96875 h 8.59375 v -4.6875 h -3.90625 v 1.40625 h -3.125 v -12.5 h 2.96875 q 1.25,0.15625 0.15625,0.9375 v 7.1875 h 3.90625 v -11.09375 h 2.96875 q 1.25,0.15625 0.15625,0.9375 z m 11.25,-33.125 h 7.8125 l 0.625,-0.625 2.1875,2.1875 q 0.9375,0.9375 -0.46875,0.9375 -7.1875,8.75 -18.4375,12.03125 l -1.5625,-2.34375 q 4.0625,-1.09375 6.09375,-2.1875 l -3.4375,-2.96875 -2.1875,1.40625 -1.40625,-2.65625 q 6.71875,-3.59375 9.375,-8.59375 l 2.34375,0.46875 q 1.5625,0.3125 0,0.9375 z m -1.09375,8.59375 1.875,-1.09375 -4.6875,-2.96875 -1.40625,1.09375 z m 3.90625,-2.65625 q 2.03125,-1.5625 3.4375,-3.4375 h -8.125 l -0.46875,0.46875 z"
     id="piece_name"
     style="font-weight:bold;font-size:40px;text-anchor:middle"
     aria-label="將" />
</svg>
