<?xml version="1.0" encoding="UTF-8" standalone="no"?>
<svg
   height="64"
   width="64"
   version="1.1"
   id="svg1"
   sodipodi:docname="bH.svg"
   inkscape:version="1.4 (86a8ad7, 2024-10-11)"
   xmlns:inkscape="http://www.inkscape.org/namespaces/inkscape"
   xmlns:sodipodi="http://sodipodi.sourceforge.net/DTD/sodipodi-0.dtd"
   xmlns="http://www.w3.org/2000/svg"
   xmlns:svg="http://www.w3.org/2000/svg">
  <sodipodi:namedview
     id="namedview1"
     pagecolor="#505050"
     bordercolor="#eeeeee"
     borderopacity="1"
     inkscape:showpageshadow="0"
     inkscape:pageopacity="0"
     inkscape:pagecheckerboard="0"
     inkscape:deskcolor="#505050"
     inkscape:zoom="12.078125"
     inkscape:cx="31.958603"
     inkscape:cy="32"
     inkscape:window-width="1920"
     inkscape:window-height="991"
     inkscape:window-x="-9"
     inkscape:window-y="-9"
     inkscape:window-maximized="1"
     inkscape:current-layer="svg1" />
  <defs
     id="defs1" />
  <path
     id="outline"
     style="fill:#f6f6f6;stroke:#000000;stroke-width:2"
     d="M 63,32 A 31,31 0 0 1 32,63 31,31 0 0 1 1,32 31,31 0 0 1 32,1 31,31 0 0 1 63,32 Z" />
  <path
     id="color"
     style="fill:none;stroke:#000000;stroke-width:2"
     d="M 59,32 A 27,27 0 0 1 32,59 27,27 0 0 1 5,32 27,27 0 0 1 32,5 27,27 0 0 1 59,32 Z" />
  <path
     d="m 39.151398,42.277813 q -0.78125,-3.125 -2.5,-5.78125 l 2.96875,-1.09375 q 1.875,2.5 2.96875,5.78125 z m -6.875,1.09375 q -0.625,-3.4375 -1.875,-6.25 l 2.96875,-0.78125 q 1.5625,2.5 2.1875,6.09375 z m -10.15625,-6.09375 q -0.625,4.6875 -2.8125,8.125 l -3.125,-1.5625 q 2.03125,-3.125 2.8125,-7.34375 z m 26.5625,-6.25 -0.9375,12.03125 q -0.3125,3.75 -2.96875,3.75 h -4.375 l -0.78125,-2.96875 h 3.90625 q 0.9375,0 1.09375,-1.25 l 0.78125,-8.59375 h -22.65625 v 1.09375 h -3.125 v -22.34375 h 26.875 v 2.96875 h -11.71875 v 2.96875 h 9.6875 v 2.96875 h -9.6875 v 2.96875 h 9.84375 v 2.96875 h -9.84375 v 3.4375 z m -17.03125,-6.40625 v -2.96875 h -8.90625 v 2.96875 z m 0,6.40625 v -3.4375 h -8.90625 v 3.4375 z m -4.21875,6.09375 q 0.9375,3.125 0.78125,6.875 l -3.4375,0.625 q 0.15625,-4.21875 -0.46875,-7.1875 z m 4.21875,-18.4375 v -2.96875 h -8.90625 v 2.96875 z"
     id="piece_name"
     style="font-weight:bold;font-size:40px;text-anchor:middle"
     aria-label="馬" />
</svg>
