<?xml version="1.0" encoding="UTF-8" standalone="no"?>
<svg
   height="64"
   width="64"
   version="1.1"
   id="svg1"
   sodipodi:docname="bR.svg"
   inkscape:version="1.4 (86a8ad7, 2024-10-11)"
   xmlns:inkscape="http://www.inkscape.org/namespaces/inkscape"
   xmlns:sodipodi="http://sodipodi.sourceforge.net/DTD/sodipodi-0.dtd"
   xmlns="http://www.w3.org/2000/svg"
   xmlns:svg="http://www.w3.org/2000/svg">
  <sodipodi:namedview
     id="namedview1"
     pagecolor="#505050"
     bordercolor="#eeeeee"
     borderopacity="1"
     inkscape:showpageshadow="0"
     inkscape:pageopacity="0"
     inkscape:pagecheckerboard="0"
     inkscape:deskcolor="#505050"
     inkscape:zoom="12.078125"
     inkscape:cx="31.958603"
     inkscape:cy="32"
     inkscape:window-width="1920"
     inkscape:window-height="991"
     inkscape:window-x="-9"
     inkscape:window-y="-9"
     inkscape:window-maximized="1"
     inkscape:current-layer="svg1" />
  <defs
     id="defs1" />
  <path
     id="outline"
     style="fill:#f6f6f6;stroke:#000000;stroke-width:2"
     d="M 63,32 A 31,31 0 0 1 32,63 31,31 0 0 1 1,32 31,31 0 0 1 32,1 31,31 0 0 1 63,32 Z" />
  <path
     id="color"
     style="fill:none;stroke:#000000;stroke-width:2"
     d="M 59,32 A 27,27 0 0 1 32,59 27,27 0 0 1 5,32 27,27 0 0 1 32,5 27,27 0 0 1 59,32 Z" />
  <path
     d="m 15.814117,17.259136 v -2.96875 h 14.375 v -3.4375 h 2.96875 q 1.25,0.15625 0.15625,0.9375 v 2.5 h 14.0625 v 2.96875 h -14.0625 v 3.125 h 10.9375 v 14.21875 h -3.125 v -0.78125 h -7.8125 v 3.125 h 16.25 v 2.96875 h -16.25 v 6.5625 h -3.125 v -6.5625 h -16.25 v -2.96875 h 16.25 v -3.125 h -7.8125 v 0.9375 h -3.125 v -14.375 h 10.9375 v -3.125 z m 17.5,14.0625 h 7.8125 v -2.96875 h -7.8125 z m -10.9375,-5.46875 h 7.8125 v -2.96875 h -7.8125 z m 10.9375,0 h 7.8125 v -2.96875 h -7.8125 z m -10.9375,5.46875 h 7.8125 v -2.96875 h -7.8125 z"
     id="piece_name"
     style="font-weight:bold;font-size:40px;text-anchor:middle"
     aria-label="車" />
</svg>
