<?xml version="1.0" encoding="UTF-8" standalone="no"?>
<svg
   height="64"
   width="64"
   version="1.1"
   id="svg1"
   sodipodi:docname="bS.svg"
   inkscape:version="1.4 (86a8ad7, 2024-10-11)"
   xmlns:inkscape="http://www.inkscape.org/namespaces/inkscape"
   xmlns:sodipodi="http://sodipodi.sourceforge.net/DTD/sodipodi-0.dtd"
   xmlns="http://www.w3.org/2000/svg"
   xmlns:svg="http://www.w3.org/2000/svg">
  <sodipodi:namedview
     id="namedview1"
     pagecolor="#505050"
     bordercolor="#eeeeee"
     borderopacity="1"
     inkscape:showpageshadow="0"
     inkscape:pageopacity="0"
     inkscape:pagecheckerboard="0"
     inkscape:deskcolor="#505050"
     inkscape:zoom="12.078125"
     inkscape:cx="31.958603"
     inkscape:cy="32"
     inkscape:window-width="1920"
     inkscape:window-height="991"
     inkscape:window-x="-9"
     inkscape:window-y="-9"
     inkscape:window-maximized="1"
     inkscape:current-layer="svg1" />
  <defs
     id="defs1" />
  <path
     id="outline"
     style="fill:#f6f6f6;stroke:#000000;stroke-width:2"
     d="M 63,32 A 31,31 0 0 1 32,63 31,31 0 0 1 1,32 31,31 0 0 1 32,1 31,31 0 0 1 63,32 Z" />
  <path
     id="color"
     style="fill:none;stroke:#000000;stroke-width:2"
     d="M 59,32 A 27,27 0 0 1 32,59 27,27 0 0 1 5,32 27,27 0 0 1 32,5 27,27 0 0 1 59,32 Z" />
  <path
     d="m 39.1875,24.043259 q 4.21875,2.1875 8.125,5.3125 l -2.03125,2.8125 q -3.4375,-2.96875 -7.1875,-5.46875 -1.875,3.59375 -4.53125,6.09375 l -2.5,-2.1875 q 4.0625,-3.59375 6.40625,-10.78125 l 3.125,1.25 q 0.625,0.625 -0.46875,0.78125 z m -14.84375,3.4375 q -2.5,4.21875 -5.9375,6.5625 L 16.375,31.230759 Q 22,27.168259 24.5,19.824509 l 2.96875,1.25 q 0.9375,0.625 -0.46875,0.9375 -0.46875,1.09375 -1.25,2.8125 2.8125,1.40625 5.3125,3.59375 l -1.875,2.8125 q -2.5,-2.34375 -4.84375,-3.75 z M 16.375,19.199509 v -2.96875 h 14.0625 v -4.6875 h 2.96875 q 1.25,0.15625 0.15625,0.9375 v 3.75 h 14.21875 v 2.96875 z m 17.03125,13.90625 q 1.25,0.15625 0.15625,0.9375 v 1.40625 h 16.40625 v 2.96875 H 33.5625 v 9.53125 h -3.125 v -9.53125 H 14.34375 v -2.96875 H 30.4375 v -2.34375 z"
     id="piece_name"
     style="font-weight:bold;font-size:40px;text-anchor:middle"
     aria-label="å’" />
</svg>
