<?xml version="1.0" encoding="UTF-8" standalone="no"?>
<svg
   height="64"
   width="64"
   version="1.1"
   id="svg1"
   sodipodi:docname="rA.svg"
   inkscape:version="1.4 (86a8ad7, 2024-10-11)"
   xmlns:inkscape="http://www.inkscape.org/namespaces/inkscape"
   xmlns:sodipodi="http://sodipodi.sourceforge.net/DTD/sodipodi-0.dtd"
   xmlns="http://www.w3.org/2000/svg"
   xmlns:svg="http://www.w3.org/2000/svg">
  <sodipodi:namedview
     id="namedview1"
     pagecolor="#505050"
     bordercolor="#eeeeee"
     borderopacity="1"
     inkscape:showpageshadow="0"
     inkscape:pageopacity="0"
     inkscape:pagecheckerboard="0"
     inkscape:deskcolor="#505050"
     inkscape:zoom="12.078125"
     inkscape:cx="31.958603"
     inkscape:cy="32"
     inkscape:window-width="1920"
     inkscape:window-height="991"
     inkscape:window-x="-9"
     inkscape:window-y="-9"
     inkscape:window-maximized="1"
     inkscape:current-layer="svg1" />
  <defs
     id="defs1" />
  <path
     id="outline"
     style="fill:#fff6f6;stroke:#000000;stroke-width:2"
     d="M 63,32 A 31,31 0 0 1 32,63 31,31 0 0 1 1,32 31,31 0 0 1 32,1 31,31 0 0 1 63,32 Z" />
  <path
     id="color"
     style="fill:none;stroke:#ff0000;stroke-width:2"
     d="M 59,32 A 27,27 0 0 1 32,59 27,27 0 0 1 5,32 27,27 0 0 1 32,5 27,27 0 0 1 59,32 Z" />
  <path
     d="m 21.971985,23.088333 q 1.875,0.3125 0.625,1.09375 v 24.375 h -3.125 v -20 q -1.71875,3.125 -4.0625,5.3125 l -2.1875,-3.28125 q 5.78125,-5.15625 7.96875,-17.1875 l 3.4375,0.9375 q 1.40625,0.46875 -0.3125,1.09375 -0.78125,4.0625 -2.34375,7.65625 z m 15.9375,1.875 h 11.09375 v 3.4375 h -11.09375 v 15 h 9.6875 v 3.4375 h -22.1875 v -3.4375 h 9.375 v -15 h -10.46875 v -3.4375 h 10.46875 v -11.09375 h 2.96875 q 1.25,0.15625 0.15625,0.9375 z"
     id="piece_name"
     style="font-weight:bold;font-size:40px;text-anchor:middle;fill:#ff0000"
     aria-label="仕" />
</svg>
