<?xml version="1.0" encoding="UTF-8" standalone="no"?>
<svg
   height="64"
   width="64"
   version="1.1"
   id="svg1"
   sodipodi:docname="rC.svg"
   inkscape:version="1.4 (86a8ad7, 2024-10-11)"
   xmlns:inkscape="http://www.inkscape.org/namespaces/inkscape"
   xmlns:sodipodi="http://sodipodi.sourceforge.net/DTD/sodipodi-0.dtd"
   xmlns="http://www.w3.org/2000/svg"
   xmlns:svg="http://www.w3.org/2000/svg">
  <sodipodi:namedview
     id="namedview1"
     pagecolor="#505050"
     bordercolor="#eeeeee"
     borderopacity="1"
     inkscape:showpageshadow="0"
     inkscape:pageopacity="0"
     inkscape:pagecheckerboard="0"
     inkscape:deskcolor="#505050"
     inkscape:zoom="12.078125"
     inkscape:cx="31.958603"
     inkscape:cy="32"
     inkscape:window-width="1920"
     inkscape:window-height="991"
     inkscape:window-x="-9"
     inkscape:window-y="-9"
     inkscape:window-maximized="1"
     inkscape:current-layer="svg1" />
  <defs
     id="defs1" />
  <path
     id="outline"
     style="fill:#fff6f6;stroke:#000000;stroke-width:2"
     d="M 63,32 A 31,31 0 0 1 32,63 31,31 0 0 1 1,32 31,31 0 0 1 32,1 31,31 0 0 1 63,32 Z" />
  <path
     id="color"
     style="fill:none;stroke:#ff0000;stroke-width:2"
     d="M 59,32 A 27,27 0 0 1 32,59 27,27 0 0 1 5,32 27,27 0 0 1 32,5 27,27 0 0 1 59,32 Z" />
  <path
     d="m 24.959412,42.45274 q -1.71875,-2.34375 -3.59375,-4.375 -1.875,5.9375 -5.9375,8.90625 l -1.875,-2.34375 q 5.78125,-5 5.78125,-12.8125 V 12.29649 h 2.5 q 1.40625,0.3125 0.15625,0.9375 v 8.28125 l 2.65625,-3.28125 2.1875,1.875 q 1.25,1.09375 -0.625,0.9375 l -4.21875,3.28125 v 10.625 q 2.5,2.1875 5,4.84375 z m 14.6875,-17.96875 v 10.3125 h -8.125 v 7.34375 q 0,1.09375 1.40625,1.09375 h 11.09375 q 2.03125,0 2.34375,-1.5625 l 0.46875,-2.03125 2.8125,0.625 -0.78125,3.28125 q -0.625,2.65625 -3.4375,2.65625 h -13.75 q -2.8125,0 -2.8125,-2.8125 v -17.5 q -0.78125,1.40625 -2.1875,2.8125 l -1.875,-2.65625 q 4.21875,-3.75 7.5,-14.21875 l 2.5,0.78125 q 1.5625,0.46875 -0.15625,1.09375 -0.78125,1.875 -1.5625,4.0625 h 15 l -0.9375,16.09375 q -0.3125,5.15625 -2.96875,5.15625 h -3.4375 l -0.46875,-2.96875 h 2.96875 q 0.78125,0 0.9375,-2.34375 l 0.78125,-12.96875 h -12.96875 q -0.9375,1.875 -2.1875,3.75 z m -8.125,7.8125 h 5.46875 v -5.3125 h -5.46875 z M 17.615662,21.51524 q 0.15625,4.0625 -1.09375,10.15625 l -2.8125,-0.625 q 1.40625,-6.09375 1.25,-10.78125 l 2.5,0.15625 q 1.5625,0.3125 0.15625,1.09375 z"
     id="piece_name"
     style="font-weight:bold;font-size:40px;text-anchor:middle;fill:#ff0000"
     aria-label="炮" />
</svg>
