<?xml version="1.0" encoding="UTF-8" standalone="no"?>
<svg
   height="64"
   width="64"
   version="1.1"
   id="svg1"
   sodipodi:docname="rE.svg"
   inkscape:version="1.4 (86a8ad7, 2024-10-11)"
   xmlns:inkscape="http://www.inkscape.org/namespaces/inkscape"
   xmlns:sodipodi="http://sodipodi.sourceforge.net/DTD/sodipodi-0.dtd"
   xmlns="http://www.w3.org/2000/svg"
   xmlns:svg="http://www.w3.org/2000/svg">
  <sodipodi:namedview
     id="namedview1"
     pagecolor="#505050"
     bordercolor="#eeeeee"
     borderopacity="1"
     inkscape:showpageshadow="0"
     inkscape:pageopacity="0"
     inkscape:pagecheckerboard="0"
     inkscape:deskcolor="#505050"
     inkscape:zoom="12.078125"
     inkscape:cx="31.958603"
     inkscape:cy="32"
     inkscape:window-width="1920"
     inkscape:window-height="991"
     inkscape:window-x="-9"
     inkscape:window-y="-9"
     inkscape:window-maximized="1"
     inkscape:current-layer="svg1" />
  <defs
     id="defs1" />
  <path
     id="outline"
     style="fill:#fff6f6;stroke:#000000;stroke-width:2"
     d="M 63,32 A 31,31 0 0 1 32,63 31,31 0 0 1 1,32 31,31 0 0 1 32,1 31,31 0 0 1 63,32 Z" />
  <path
     id="color"
     style="fill:none;stroke:#ff0000;stroke-width:2"
     d="M 59,32 A 27,27 0 0 1 32,59 27,27 0 0 1 5,32 27,27 0 0 1 32,5 27,27 0 0 1 59,32 Z" />
  <path
     d="m 30.695221,20.999798 h -6.09375 v 4.53125 q 3.90625,2.1875 6.40625,5.3125 l -1.71875,2.8125 q -2.34375,-2.96875 -4.6875,-4.53125 v 17.1875 h -3.125 v -17.34375 q -2.03125,4.6875 -5.3125,7.65625 l -2.03125,-2.65625 q 5.78125,-6.09375 7.34375,-12.96875 h -6.40625 v -2.96875 h 6.40625 v -7.03125 h 2.96875 q 1.25,0.15625 0.15625,0.9375 v 6.09375 h 6.09375 z m 1.40625,-7.1875 h 16.25 v 31.71875 h -3.125 v -1.40625 h -10 v 2.34375 h -3.125 z m 3.125,2.96875 v 5.9375 h 10 v -5.9375 z m 0,8.90625 v 6.09375 h 10 v -6.09375 z m 0,15.46875 h 10 v -6.40625 h -10 z"
     id="piece_name"
     style="font-weight:bold;font-size:40px;text-anchor:middle;fill:#ff0000"
     aria-label="相" />
</svg>
