<?xml version="1.0" encoding="UTF-8" standalone="no"?>
<svg
   height="64"
   width="64"
   version="1.1"
   id="svg1"
   sodipodi:docname="rG.svg"
   inkscape:version="1.4 (86a8ad7, 2024-10-11)"
   xmlns:inkscape="http://www.inkscape.org/namespaces/inkscape"
   xmlns:sodipodi="http://sodipodi.sourceforge.net/DTD/sodipodi-0.dtd"
   xmlns="http://www.w3.org/2000/svg"
   xmlns:svg="http://www.w3.org/2000/svg">
  <sodipodi:namedview
     id="namedview1"
     pagecolor="#505050"
     bordercolor="#eeeeee"
     borderopacity="1"
     inkscape:showpageshadow="0"
     inkscape:pageopacity="0"
     inkscape:pagecheckerboard="0"
     inkscape:deskcolor="#505050"
     inkscape:zoom="12.078125"
     inkscape:cx="31.958603"
     inkscape:cy="32"
     inkscape:window-width="1920"
     inkscape:window-height="991"
     inkscape:window-x="-9"
     inkscape:window-y="-9"
     inkscape:window-maximized="1"
     inkscape:current-layer="svg1" />
  <defs
     id="defs1" />
  <path
     id="outline"
     style="fill:#fff6f6;stroke:#000000;stroke-width:2"
     d="M 63,32 A 31,31 0 0 1 32,63 31,31 0 0 1 1,32 31,31 0 0 1 32,1 31,31 0 0 1 63,32 Z" />
  <path
     id="color"
     style="fill:none;stroke:#ff0000;stroke-width:2"
     d="M 59,32 A 27,27 0 0 1 32,59 27,27 0 0 1 5,32 27,27 0 0 1 32,5 27,27 0 0 1 59,32 Z" />
  <path
     d="m 23.131104,16.487225 h 6.09375 v 12.65625 h -3.125 v -1.5625 h -6.875 v 4.375 h 10.3125 v 13.125 h -3.125 v -1.71875 h -7.1875 v 2.65625 h -3.125 v -29.53125 h 4.21875 l 1.09375,-5.625 3.59375,0.46875 q 0.625,0.625 -0.46875,0.78125 z m 20.625,22.65625 -0.3125,-2.96875 h 1.71875 q 0.625,0 0.625,-0.625 v -14.53125 h -4.21875 v 25.625 h -3.125 v -25.625 h -3.59375 v 18.4375 h -3.125 v -21.40625 h 6.71875 v -6.71875 h 2.96875 q 1.25,0.15625 0.15625,0.9375 v 5.78125 h 7.34375 v 18.59375 q 0,2.5 -2.5,2.5 z m -24.53125,-4.21875 v 5.46875 h 7.1875 v -5.46875 z m 0,-15.46875 v 5.15625 h 6.875 v -5.15625 z"
     id="piece_name"
     style="font-weight:bold;font-size:40px;text-anchor:middle;fill:#ff0000"
     aria-label="帥" />
</svg>
