<?xml version="1.0" encoding="UTF-8" standalone="no"?>
<svg
   height="64"
   width="64"
   version="1.1"
   id="svg1"
   sodipodi:docname="rH.svg"
   inkscape:version="1.4 (86a8ad7, 2024-10-11)"
   xmlns:inkscape="http://www.inkscape.org/namespaces/inkscape"
   xmlns:sodipodi="http://sodipodi.sourceforge.net/DTD/sodipodi-0.dtd"
   xmlns="http://www.w3.org/2000/svg"
   xmlns:svg="http://www.w3.org/2000/svg">
  <sodipodi:namedview
     id="namedview1"
     pagecolor="#505050"
     bordercolor="#eeeeee"
     borderopacity="1"
     inkscape:showpageshadow="0"
     inkscape:pageopacity="0"
     inkscape:pagecheckerboard="0"
     inkscape:deskcolor="#505050"
     inkscape:zoom="12.078125"
     inkscape:cx="31.958603"
     inkscape:cy="32"
     inkscape:window-width="1920"
     inkscape:window-height="991"
     inkscape:window-x="-9"
     inkscape:window-y="-9"
     inkscape:window-maximized="1"
     inkscape:current-layer="svg1" />
  <defs
     id="defs1" />
  <path
     id="outline"
     style="fill:#fff6f6;stroke:#000000;stroke-width:2"
     d="M 63,32 A 31,31 0 0 1 32,63 31,31 0 0 1 1,32 31,31 0 0 1 32,1 31,31 0 0 1 63,32 Z" />
  <path
     id="color"
     style="fill:none;stroke:#ff0000;stroke-width:2"
     d="M 59,32 A 27,27 0 0 1 32,59 27,27 0 0 1 5,32 27,27 0 0 1 32,5 27,27 0 0 1 59,32 Z" />
  <path
     d="m 37.939209,36.425217 q 0.859375,2.5 2.03125,7.226562 l -2.851563,0.820313 q 1.796875,0.03906 5,0.07813 2.539063,-0.07813 2.734375,-2.265625 0.3125,-3.867188 0.390625,-6.796875 H 30.204834 v 1.171875 H 25.126709 V 13.026779 h 24.101562 v 3.984375 h -8.203125 v 2.421875 h 7.148438 v 3.59375 h -7.148438 v 2.421875 h 7.148438 v 3.59375 h -7.148438 v 2.460938 h 9.0625 q -0.195312,8.085937 -0.507812,11.367187 -0.234375,6.445313 -6.835938,6.484375 -0.859375,0.03906 -5.976562,0.07813 -0.429688,-2.695312 -0.859375,-5.039062 0.15625,0 0.351562,0.03906 -0.976562,-4.375 -1.796875,-7.1875 z m -18.398438,-25.195313 5.039063,1.367188 q -1.5625,4.726562 -3.28125,8.945312 v 28.203125 h -4.882813 v -18.125 q -1.40625,2.460938 -2.890625,4.648438 -0.507812,-3.125 -1.601562,-7.03125 4.53125,-7.070313 7.617187,-18.007813 z m 8.59375,26.5625 q -0.859375,5.46875 -1.640625,10 -1.835937,-0.546875 -4.257812,-0.976562 1.015625,-4.0625 1.875,-9.570313 z m 4.882813,-0.507812 q 0.820312,3.710937 1.640625,8.125 l -3.945313,0.859375 q -0.585937,-4.21875 -1.210937,-8.398438 z m 9.53125,-1.757813 q 1.40625,3.789063 2.148437,6.210938 l -3.28125,1.015625 q -0.859375,-3.046875 -1.914062,-6.328125 z m -12.34375,-4.023437 h 5.859375 v -2.460938 h -5.859375 z m 0,-6.054688 h 5.859375 v -2.421875 h -5.859375 z m 0,-6.015625 h 5.859375 v -2.421875 h -5.859375 z"
     id="piece_name"
     style="font-weight:bold;font-size:40px;text-anchor:middle;fill:#ff0000"
     aria-label="傌" />
</svg>
