<?xml version="1.0" encoding="UTF-8" standalone="no"?>
<svg
   height="64"
   width="64"
   version="1.1"
   id="svg1"
   sodipodi:docname="rR.svg"
   inkscape:version="1.4 (86a8ad7, 2024-10-11)"
   xmlns:inkscape="http://www.inkscape.org/namespaces/inkscape"
   xmlns:sodipodi="http://sodipodi.sourceforge.net/DTD/sodipodi-0.dtd"
   xmlns="http://www.w3.org/2000/svg"
   xmlns:svg="http://www.w3.org/2000/svg">
  <sodipodi:namedview
     id="namedview1"
     pagecolor="#505050"
     bordercolor="#eeeeee"
     borderopacity="1"
     inkscape:showpageshadow="0"
     inkscape:pageopacity="0"
     inkscape:pagecheckerboard="0"
     inkscape:deskcolor="#505050"
     inkscape:zoom="12.078125"
     inkscape:cx="31.958603"
     inkscape:cy="32"
     inkscape:window-width="1920"
     inkscape:window-height="991"
     inkscape:window-x="-9"
     inkscape:window-y="-9"
     inkscape:window-maximized="1"
     inkscape:current-layer="svg1" />
  <defs
     id="defs1" />
  <path
     id="outline"
     style="fill:#fff6f6;stroke:#000000;stroke-width:2"
     d="M 63,32 A 31,31 0 0 1 32,63 31,31 0 0 1 1,32 31,31 0 0 1 32,1 31,31 0 0 1 63,32 Z" />
  <path
     id="color"
     style="fill:none;stroke:#ff0000;stroke-width:2"
     d="M 59,32 A 27,27 0 0 1 32,59 27,27 0 0 1 5,32 27,27 0 0 1 32,5 27,27 0 0 1 59,32 Z" />
  <path
     d="m 42.854706,32.618328 v -2.96875 h -5 v 2.96875 z m 0,-5.46875 v -3.125 h -5 v 3.125 z m -21.09375,20.3125 h -3.125 v -20 q -1.5625,2.8125 -3.28125,4.0625 l -1.5625,-2.96875 q 5.15625,-5.625 7.8125,-16.875 l 2.8125,0.625 q 1.5625,0.625 0,1.25 -1.40625,5.15625 -3.125,9.375 2.03125,0.15625 0.46875,1.09375 z m 15.9375,-35.78125 q 1.40625,0.15625 0.15625,0.9375 v 3.125 h 11.09375 v 2.96875 h -11.09375 v 2.8125 h 8.125 v 14.53125 h -3.125 v -0.9375 h -5 v 3.125 h 12.1875 v 2.96875 h -12.1875 v 6.25 h -3.125 v -6.25 h -11.875 v -2.96875 h 11.875 v -3.125 h -4.6875 v 1.5625 h -3.125 v -15.15625 h 7.8125 v -2.8125 h -10.3125 v -2.96875 h 10.3125 v -4.0625 z m -2.96875,20.9375 v -2.96875 h -4.6875 v 2.96875 z m -4.6875,-8.59375 v 3.125 h 4.6875 v -3.125 z"
     id="piece_name"
     style="font-weight:bold;font-size:40px;text-anchor:middle;fill:#ff0000"
     aria-label="俥" />
</svg>
