<?xml version="1.0" encoding="UTF-8" standalone="no"?>
<svg
   height="64"
   width="64"
   version="1.1"
   id="svg1"
   sodipodi:docname="rS.svg"
   inkscape:version="1.4 (86a8ad7, 2024-10-11)"
   xmlns:inkscape="http://www.inkscape.org/namespaces/inkscape"
   xmlns:sodipodi="http://sodipodi.sourceforge.net/DTD/sodipodi-0.dtd"
   xmlns="http://www.w3.org/2000/svg"
   xmlns:svg="http://www.w3.org/2000/svg">
  <sodipodi:namedview
     id="namedview1"
     pagecolor="#505050"
     bordercolor="#eeeeee"
     borderopacity="1"
     inkscape:showpageshadow="0"
     inkscape:pageopacity="0"
     inkscape:pagecheckerboard="0"
     inkscape:deskcolor="#505050"
     inkscape:zoom="12.078125"
     inkscape:cx="31.958603"
     inkscape:cy="32"
     inkscape:window-width="1920"
     inkscape:window-height="991"
     inkscape:window-x="-9"
     inkscape:window-y="-9"
     inkscape:window-maximized="1"
     inkscape:current-layer="svg1" />
  <defs
     id="defs1" />
  <path
     id="outline"
     style="fill:#fff6f6;stroke:#000000;stroke-width:2"
     d="M 63,32 A 31,31 0 0 1 32,63 31,31 0 0 1 1,32 31,31 0 0 1 32,1 31,31 0 0 1 63,32 Z" />
  <path
     id="color"
     style="fill:none;stroke:#ff0000;stroke-width:2"
     d="M 59,32 A 27,27 0 0 1 32,59 27,27 0 0 1 5,32 27,27 0 0 1 32,5 27,27 0 0 1 59,32 Z" />
  <path
     d="m 28.929779,39.768475 q 0.78125,0.78125 -0.46875,0.78125 -4.375,3.90625 -10.9375,6.09375 l -2.1875,-3.59375 q 6.40625,-1.71875 10.9375,-5.625 z m 15.78125,-24.53125 q 0.3125,0.78125 -1.09375,0.3125 -8.75,0.9375 -18.75,1.71875 l 0.15625,4.6875 h 21.5625 v 2.96875 h -7.34375 v 7.5 h 9.84375 v 3.4375 h -35 v -3.4375 h 8.125 l -0.78125,-19.0625 3.59375,1.09375 q 9.53125,-1.25 17.03125,-2.65625 z m -8.59375,17.1875 v -7.5 h -10.9375 l 0.3125,7.5 z m 0.9375,5 q 4.375,3.59375 11.71875,5.46875 l -1.71875,3.59375 q -7.03125,-1.71875 -12.34375,-6.40625 z"
     id="piece_name"
     style="font-weight:bold;font-size:40px;text-anchor:middle;fill:#ff0000"
     aria-label="兵" />
</svg>
